<?xml version="1.0" encoding="UTF-8" standalone="no"?>
<!DOCTYPE svg PUBLIC "-//W3C//DTD SVG 1.1//EN" "http://www.w3.org/Graphics/SVG/1.1/DTD/svg11.dtd">
<svg width="100%" height="100%" viewBox="0 0 613 71" version="1.1" xmlns="http://www.w3.org/2000/svg" xmlns:xlink="http://www.w3.org/1999/xlink" xml:space="preserve" xmlns:serif="http://www.serif.com/" style="fill-rule:evenodd;clip-rule:evenodd;stroke-linejoin:round;stroke-miterlimit:2;">
    <g transform="matrix(1,0,0,1,-311,-451)">
        <g transform="matrix(1.33333,0,0,1.33333,81.6667,0)">
            <g id="title">
                <g id="path254494" transform="matrix(0.77,0,0,0.77,6.59134,390.318)">
                    <path d="M278.706,-53.496L285.33,-58.608C285.042,-58.968 278.274,-67.608 266.61,-67.608C252.93,-67.608 246.81,-56.736 246.81,-46.008L246.81,-22.176L223.41,-22.176L223.41,-50.184L214.986,-50.184L214.986,0L223.41,0L223.41,-13.752L246.81,-13.752L246.81,0L255.234,0L255.234,-46.008C255.234,-49.104 256.098,-59.184 266.61,-59.184C274.026,-59.184 278.49,-53.712 278.706,-53.496Z" style="fill:rgb(253,224,71);fill-rule:nonzero;"/>
                </g>
                <g id="path254496" transform="matrix(0.77,0,0,0.77,6.59134,390.318)">
                    <path d="M269.993,-14.616L271.577,-19.08L285.329,-19.08L286.841,-14.616L294.041,-17.064L282.737,-50.4L274.097,-50.4L262.793,-17.064L269.993,-14.616ZM274.169,-26.712L278.417,-39.312L282.737,-26.712L274.169,-26.712Z" style="fill:rgb(254,240,138);fill-rule:nonzero;"/>
                </g>
                <g id="path254498" transform="matrix(0.77,0,0,0.77,6.59134,390.318)">
                    <path d="M325.622,-7.2C316.19,-7.2 309.35,-14.688 309.35,-24.984C309.35,-35.352 316.19,-42.84 325.622,-42.84C331.238,-42.84 335.99,-40.32 338.942,-35.712L345.998,-40.248C341.534,-47.232 334.118,-51.264 325.622,-51.264C311.582,-51.264 300.926,-39.96 300.926,-24.984C300.926,-10.08 311.582,1.224 325.622,1.224C334.622,1.224 341.966,-2.736 346.358,-9.864L339.158,-14.256C336.278,-9.648 331.67,-7.2 325.622,-7.2Z" style="fill:rgb(253,224,71);fill-rule:nonzero;"/>
                </g>
                <g id="path254500" transform="matrix(0.77,0,0,0.77,6.59134,390.318)">
                    <path d="M377.611,-25.344C384.667,-31.32 389.131,-40.248 389.131,-50.184L380.707,-50.184C380.707,-38.88 372.859,-29.376 362.347,-26.784L362.347,-50.184L353.923,-50.184L353.923,0L362.347,0L362.347,-18.144C365.011,-18.648 367.531,-19.44 369.979,-20.52C377.035,-16.128 381.355,-8.424 381.355,0L389.779,0C389.779,-10.008 385.243,-19.224 377.611,-25.344Z" style="fill:rgb(253,224,71);fill-rule:nonzero;"/>
                </g>
                <g id="path254502" transform="matrix(0.77,0,0,0.77,6.59134,390.318)">
                    <path d="M429.321,-50.184L398.361,-50.184L398.361,0L429.321,0L429.321,-8.424L406.785,-8.424L406.785,-21.384L423.489,-21.384L423.489,-29.808L406.785,-29.808L406.785,-41.76L429.321,-41.76L429.321,-50.184Z" style="fill:rgb(253,224,71);fill-rule:nonzero;"/>
                </g>
                <g id="path254504" transform="matrix(0.77,0,0,0.77,6.59134,390.318)">
                    <path d="M468.837,-13.68C468.549,-14.544 468.189,-15.336 467.757,-16.056C469.701,-17.064 471.213,-18.288 472.293,-19.44C475.389,-22.68 477.117,-27.072 477.117,-31.824C477.117,-43.776 467.469,-50.184 458.397,-50.184L437.877,-50.184L437.877,0L446.301,0L446.301,-13.824L457.101,-13.824C458.973,-13.824 460.269,-12.816 460.917,-10.8L461.061,-10.44C463.653,-4.824 469.413,1.224 478.125,1.224L478.125,-7.2C472.437,-7.2 469.629,-12.024 468.837,-13.68ZM446.301,-22.248L446.301,-41.76L458.397,-41.76C465.453,-41.76 468.693,-36.648 468.693,-31.824C468.693,-29.304 467.829,-26.928 466.173,-25.272C464.301,-23.256 461.421,-22.248 457.893,-22.248L446.301,-22.248Z" style="fill:rgb(253,224,71);fill-rule:nonzero;"/>
                </g>
                <g id="path254506" transform="matrix(0.77,0,0,0.77,6.59134,390.318)">
                    <path d="M505.39,-30.384C497.182,-32.4 494.662,-33.624 494.662,-37.224C494.662,-42.336 501.574,-42.768 503.662,-42.768C509.206,-42.768 514.102,-41.472 517.054,-39.24L522.166,-45.936C516.118,-50.472 507.982,-51.192 503.662,-51.192C491.638,-51.192 486.238,-44.208 486.238,-37.224C486.238,-26.568 496.102,-24.048 503.302,-22.176C511.87,-20.016 515.398,-18.576 515.398,-13.392C515.398,-11.952 515.038,-9.864 512.086,-8.424C506.83,-5.904 496.318,-7.128 489.118,-13.032L483.79,-6.48C489.982,-1.512 498.118,1.224 505.534,1.224C509.206,1.224 512.734,0.576 515.686,-0.864C520.87,-3.312 523.822,-7.848 523.822,-13.392C523.822,-25.632 513.166,-28.368 505.39,-30.384Z" style="fill:rgb(253,224,71);fill-rule:nonzero;"/>
                </g>
                <g id="path254508" transform="matrix(0.77,0,0,0.77,6.59134,390.318)">
                    <path d="M562.548,-27.504C564.348,-29.88 565.428,-32.832 565.428,-36.072C565.428,-43.848 559.092,-50.256 551.244,-50.256L532.236,-50.256L532.236,0L553.764,0C562.116,0 568.884,-6.84 568.884,-15.192C568.884,-20.304 566.364,-24.768 562.548,-27.504ZM540.66,-8.424L540.66,-21.96L553.764,-21.96C557.508,-21.96 560.532,-18.864 560.532,-15.192C560.532,-11.448 557.508,-8.424 553.764,-8.424L540.66,-8.424ZM540.66,-30.312L540.66,-41.832L551.244,-41.832C554.412,-41.832 557.004,-39.24 557.004,-36.072C557.004,-32.904 554.412,-30.312 551.244,-30.312L540.66,-30.312Z" style="fill:rgb(234,179,8);fill-rule:nonzero;"/>
                </g>
                <g id="path254510" transform="matrix(0.77,0,0,0.77,6.59134,390.318)">
                    <path d="M616.761,-22.392L616.761,-50.184L608.337,-50.184L608.337,-22.392C608.337,-12.312 604.449,-7.2 596.673,-7.2C586.089,-7.2 584.937,-17.856 584.937,-22.392L584.937,-50.184L576.513,-50.184L576.513,-22.392C576.513,-8.064 584.433,1.224 596.673,1.224C609.273,1.224 616.761,-7.632 616.761,-22.392Z" style="fill:rgb(234,179,8);fill-rule:nonzero;"/>
                </g>
                <g id="path254512" transform="matrix(0.77,0,0,0.77,6.59134,390.318)">
                    <path d="M657.837,-50.184L626.877,-50.184L626.877,0L657.837,0L657.837,-8.424L635.301,-8.424L635.301,-21.384L652.005,-21.384L652.005,-29.808L635.301,-29.808L635.301,-41.76L657.837,-41.76L657.837,-50.184Z" style="fill:rgb(234,179,8);fill-rule:nonzero;"/>
                </g>
                <g id="path254514" transform="matrix(0.77,0,0,0.77,6.59134,390.318)">
                    <path d="M708.152,-50.184L699.728,-50.184L699.728,-12.744L676.904,-50.184L666.392,-50.184L666.392,0L674.816,0L674.816,-37.44L697.64,0L708.152,0L708.152,-50.184Z" style="fill:rgb(234,179,8);fill-rule:nonzero;"/>
                </g>
                <g id="path254516" transform="matrix(0.77,0,0,0.77,6.59134,390.318)">
                    <path d="M741.522,-51.408C727.41,-51.408 716.754,-40.104 716.754,-25.128C716.754,-10.08 727.41,1.224 741.522,1.224C756.066,1.224 766.29,-9.648 766.29,-25.128C766.29,-40.104 755.634,-51.408 741.522,-51.408ZM725.178,-25.128C725.178,-35.424 732.018,-42.984 741.522,-42.984C751.026,-42.984 757.866,-35.424 757.866,-25.128C757.866,-16.848 753.618,-7.2 741.522,-7.2C732.018,-7.2 725.178,-14.76 725.178,-25.128Z" style="fill:rgb(234,179,8);fill-rule:nonzero;"/>
                </g>
                <g id="path254518" transform="matrix(0.77,0,0,0.77,6.59134,390.318)">
                    <path d="M792.968,-30.384C784.76,-32.4 782.24,-33.624 782.24,-37.224C782.24,-42.336 789.152,-42.768 791.24,-42.768C796.784,-42.768 801.68,-41.472 804.632,-39.24L809.744,-45.936C803.696,-50.472 795.56,-51.192 791.24,-51.192C779.216,-51.192 773.816,-44.208 773.816,-37.224C773.816,-26.568 783.68,-24.048 790.88,-22.176C799.448,-20.016 802.976,-18.576 802.976,-13.392C802.976,-11.952 802.616,-9.864 799.664,-8.424C794.408,-5.904 783.896,-7.128 776.696,-13.032L771.368,-6.48C777.56,-1.512 785.696,1.224 793.112,1.224C796.784,1.224 800.312,0.576 803.264,-0.864C808.448,-3.312 811.4,-7.848 811.4,-13.392C811.4,-25.632 800.744,-28.368 792.968,-30.384Z" style="fill:rgb(234,179,8);fill-rule:nonzero;"/>
                </g>
            </g>
        </g>
    </g>
</svg>
